<svg xmlns="http://www.w3.org/2000/svg" width="32" height="32" viewBox="0 0 32 32" fill="none">
  <path d="M16 2L4 7V14.5C4 21.2 9 27.4 16 29C23 27.4 28 21.2 28 14.5V7L16 2Z" fill="#F97316" stroke="#C2410C" stroke-width="2" stroke-linecap="round" stroke-linejoin="round"/>
  <path d="M16 6L8 9.5V14.75C8 19.35 11.5 23.7 16 24.75C20.5 23.7 24 19.35 24 14.75V9.5L16 6Z" fill="#FFFFFF" stroke="#F97316" stroke-width="1" stroke-linecap="round" stroke-linejoin="round"/>
  <path d="M16 10L12 12V15.5C12 18.3 13.75 20.85 16 21.5C18.25 20.85 20 18.3 20 15.5V12L16 10Z" fill="#F97316"/>
</svg>